<svg width="206" height="50" viewBox="0 0 206 50" fill="none" xmlns="http://www.w3.org/2000/svg">
<path d="M174.739 1.71309C173.66 1.88541 172.613 2.15207 171.605 2.50353C171.807 2.72166 172.024 2.92891 172.255 3.12391C173.045 2.5974 173.875 2.12531 174.739 1.71309ZM192.571 9.11319C191.653 7.84069 190.576 6.69018 189.369 5.69158C188.775 6.20131 188.14 6.67203 187.468 7.10058C188.375 8.20393 189.167 9.40614 189.825 10.6882C190.781 10.2152 191.698 9.68867 192.571 9.11319ZM188.678 5.14694C187.428 4.20957 186.054 3.4273 184.585 2.83005C184.344 3.11393 184.082 3.3824 183.801 3.63318C184.93 4.45944 185.969 5.40089 186.901 6.43985C187.528 6.04667 188.122 5.61404 188.678 5.14694ZM183.721 2.50353C182.713 2.15207 181.666 1.88541 180.587 1.71309C181.451 2.12531 182.281 2.5974 183.071 3.12391C183.302 2.92891 183.519 2.72166 183.721 2.50353ZM177.663 0.5C188.356 0.5 197.017 9.15627 197.017 19.8265C197.017 30.4967 188.356 39.153 177.663 39.153C166.969 39.153 158.308 30.4963 158.308 19.8265C158.308 9.15672 166.97 0.5 177.663 0.5ZM180.888 4.42815C181.404 4.22181 181.889 3.96786 182.337 3.67309C181.314 3.01416 180.224 2.44956 179.08 1.99199C179.725 2.76973 180.329 3.58284 180.888 4.42815ZM178.096 5.02994C178.771 4.99729 179.423 4.88935 180.041 4.71566C179.443 3.82682 178.793 2.97561 178.096 2.16567V5.02994ZM180.529 5.4671C179.761 5.70655 178.944 5.85212 178.097 5.88976V9.03155C179.503 8.99845 180.864 8.80435 182.157 8.47058C181.676 7.43254 181.132 6.42941 180.529 5.4671ZM183.102 4.19188C182.569 4.57463 181.985 4.90205 181.359 5.16417C181.966 6.14734 182.515 7.17088 182.999 8.22978C184.108 7.88286 185.161 7.43073 186.142 6.88744C185.228 5.88613 184.208 4.98187 183.102 4.19188ZM174.437 4.42815C174.997 3.58284 175.6 2.76973 176.246 1.99199C175.102 2.44956 174.012 3.01416 172.989 3.67309C173.436 3.96786 173.922 4.22181 174.437 4.42815ZM177.229 2.16567C176.532 2.97561 175.883 3.82682 175.285 4.71566C175.902 4.88935 176.554 4.99729 177.229 5.02994V2.16567ZM166.805 34.6262C167.231 34.784 167.839 34.9664 168.59 34.9196C169.581 34.8584 170.881 34.3673 172.12 33.9075C173.359 33.4472 176.61 32.6803 177.384 32.527C178.158 32.3737 178.344 32.0363 178.53 31.6989C178.716 31.3615 178.592 30.8709 178.499 30.2877C178.406 29.7049 178.251 28.7843 178.22 27.9254C178.189 27.0665 178.159 26.2992 176.796 25.4403C175.433 24.5814 174.566 23.5687 174.659 22.8019C174.752 22.035 175.65 21.3906 175.65 21.3906C175.65 21.3906 175.433 20.7466 175.526 20.4705C175.619 20.1943 176.455 20.2863 176.455 20.2863C176.455 20.2863 176.331 19.3662 176.393 19.1204C176.455 18.8751 176.889 18.9975 176.889 18.9975L177.291 18.7522C177.291 18.7522 176.981 18.1078 176.857 17.6788C176.733 17.2493 176.981 16.9119 177.477 16.9119C177.972 16.9119 178.592 16.8502 180.078 16.5133C181.564 16.1759 182.215 13.3533 185.714 12.8014C189.213 12.2491 191.938 14.8875 191.938 14.8875C191.938 14.8875 197.512 20.0718 193.858 25.9314C190.687 31.0164 186.643 29.7353 186.643 29.7353C186.643 29.7353 185.93 30.0727 186.271 31.5452C186.611 33.0177 188.748 34.2448 188.748 34.2448L188.92 34.3242C193.249 30.9675 196.033 25.7205 196.033 19.8265C196.033 16.1396 194.935 12.6994 193.06 9.82335C192.151 10.4229 191.195 10.9702 190.2 11.4618C190.461 12.0287 190.696 12.6092 190.904 13.2028C190.541 12.9919 190.16 12.8042 189.768 12.6436C189.657 12.3702 189.541 12.0999 189.418 11.8328C189.115 11.9706 188.809 12.1031 188.5 12.23C187.899 12.0831 187.287 12.0015 186.685 11.996C187.491 11.7185 188.278 11.4056 189.041 11.0587C188.395 9.80249 187.614 8.62659 186.718 7.55045C185.667 8.14725 184.536 8.64246 183.344 9.02203C183.793 10.0896 184.177 11.1906 184.492 12.3203C184.191 12.4105 183.921 12.5139 183.678 12.6264C183.36 11.4736 182.968 10.3521 182.507 9.26601C181.104 9.64014 179.624 9.85601 178.094 9.89048V13.493C179.794 13.4635 181.452 13.2844 183.053 12.9706C182.544 13.2998 182.171 13.6753 181.831 14.0508C180.612 14.2286 179.364 14.3311 178.094 14.3524V15.5927C177.9 15.6063 177.694 15.6131 177.475 15.6131C177.388 15.6131 177.305 15.6181 177.227 15.6272V9.89048C176.543 9.87506 175.868 9.82335 175.205 9.73719C175.002 9.39934 174.763 9.07146 174.495 8.75901C175.381 8.91637 176.294 9.00934 177.227 9.03111V5.8893C176.38 5.85212 175.563 5.70655 174.795 5.46665C174.326 6.21446 173.894 6.98631 173.498 7.78037C173.274 7.59399 173.04 7.41712 172.796 7.25114C173.156 6.53735 173.546 5.84124 173.965 5.16372C173.34 4.90115 172.755 4.57418 172.222 4.19143C171.452 4.74106 170.724 5.34648 170.044 6.00132C169.703 5.9147 169.357 5.85121 169.009 5.81312C169.785 5.0195 170.626 4.28938 171.523 3.63272C171.242 3.38149 170.98 3.11302 170.739 2.82913C169.27 3.42684 167.896 4.20866 166.646 5.14648C162.36 8.36129 159.522 13.405 159.304 19.1154C159.416 19.0138 161.152 17.4579 161.961 17.2801C162.797 17.096 163.447 15.6544 163.447 15.4086C163.447 15.1628 161.867 11.3503 163.788 8.81297C165.46 6.60446 168.03 5.46937 172.087 7.70872C176.144 9.94807 175.369 13.1692 174.595 14.2123C173.821 15.2553 173.48 15.5927 173.604 16.0834C173.728 16.5745 174.1 16.9423 173.945 17.1876C173.789 17.433 173.016 17.525 173.016 17.525C173.016 17.525 173.202 18.0465 173.171 18.2307C173.139 18.4148 172.706 18.3839 172.706 18.3839C172.706 18.3839 172.799 18.691 172.737 18.9055C172.675 19.1204 171.963 18.9975 171.963 18.9975C171.963 18.9975 172.118 20.3167 170.352 20.1018C168.587 19.8868 168.216 19.3349 167.689 19.7335C167.163 20.1322 167.256 20.6537 167.627 22.1878C167.999 23.7215 168.154 27.1885 168.154 27.1885L169.222 27.9399C169.222 27.9399 170.848 28.0166 171.235 28.0474C171.622 28.0783 172.056 28.1857 172.304 28.2007C172.551 28.2161 173.573 27.4184 174.115 27.296C174.657 27.1731 174.827 27.3268 174.827 27.4647C174.827 27.6025 174.673 27.9862 174.673 27.9862C174.673 27.9862 175.54 27.6642 175.849 27.7409C176.159 27.8175 176.329 28.1395 176.097 29.2442C175.865 30.3484 175.385 31.0541 174.409 31.1616C173.434 31.269 172.784 30.8087 172.087 30.8241C171.39 30.8396 169.331 31.7905 167.674 31.6522C166.017 31.5139 165.584 30.8241 165.584 30.8241C165.584 30.8241 165.011 31.8672 164.933 32.2812C164.881 32.5606 164.92 32.8894 164.952 33.0735C165.535 33.6304 166.154 34.1492 166.805 34.6262Z" fill="#375475"/>
<path d="M168.404 40.7484C167.382 40.9325 164.858 40.6255 163.372 38.831C162.107 37.3037 161.39 33.6313 161.591 33.478C161.792 33.3247 163.681 34.8126 165.632 36.5763C167.583 38.3403 169.426 40.5643 168.404 40.7484ZM163.82 41.0554C163.666 41.2704 160.95 42.0372 158.03 40.3498C155.057 38.6319 153.613 35.4366 153.663 35.2879C153.756 35.0117 155.738 35.472 159.485 37.5581C163.232 39.6441 164.037 40.8404 163.82 41.0554ZM161.281 37.4048C161.064 37.4968 158.401 36.2085 157.627 32.9261C156.853 29.6437 157.868 27.3735 158.092 27.2815C158.464 27.1282 159.64 29.061 160.507 32.0363C161.374 35.0117 161.622 37.3127 161.281 37.4048ZM157.937 36.0089C157.612 36.1164 154.716 34.9196 152.626 32.42C150.844 30.289 150.009 26.7599 150.18 26.6525C150.35 26.545 152.781 28.6311 154.763 30.8554C156.745 33.0794 158.262 35.9015 157.937 36.0089ZM156.095 31.2386C155.661 31.1466 154.407 29.7317 154.577 26.223C154.686 23.9837 156.453 21.1194 156.776 21.1307C157.209 21.1462 157.41 23.2227 157.225 25.9473C157.039 28.6769 156.528 31.3307 156.095 31.2386ZM149.483 18.0783C149.808 17.8329 151.31 20.3789 152.254 22.4958C153.056 24.292 154.081 28.1558 153.663 28.2937C153.399 28.3812 151.248 27.0511 150.04 23.8299C149.067 21.2346 149.315 18.2044 149.483 18.0783ZM156.745 15.409C157.039 15.4857 156.915 17.8017 156.032 20.2256C155.15 22.649 153.942 24.7963 153.679 24.643C153.416 24.4898 152.92 21.6214 153.756 19.4433C154.593 17.2652 156.451 15.3324 156.745 15.409ZM153.632 17.3264C153.4 17.0348 153.283 14.4345 155.041 12.2187C156.745 10.0714 158.231 9.39616 158.51 9.53448C158.789 9.6728 157.86 12.1266 156.714 13.8599C155.559 15.6072 153.824 17.5672 153.632 17.3264ZM153.121 13.001C152.725 12.8046 152.756 10.8034 153.756 8.7522C154.639 6.94231 156.543 5.19364 156.869 5.31654C157.194 5.43898 156.504 8.03704 155.769 9.68821C155.135 11.1144 153.462 13.1697 153.121 13.001ZM151.527 10.0406C151.836 9.9789 152.642 12.2491 152.796 15.317C152.951 18.3844 152.642 20.7775 152.425 20.7775C152.208 20.7775 150.613 19.4583 150.52 16.2067C150.427 12.9547 151.217 10.1023 151.527 10.0406ZM183.732 49.4917C183.268 49.645 183.113 47.651 179.242 45.0434C178.625 44.628 178.049 44.2802 177.517 43.989C177.068 44.2448 176.59 44.54 176.083 44.8811C172.212 47.4887 172.058 49.4827 171.593 49.3294C171.128 49.1761 170.385 48.3476 170.385 48.3476C170.385 48.3476 173.027 45.1269 176.194 43.3342C174.343 42.5184 173.296 42.4975 173.296 42.4975C173.296 42.4975 171.957 44.706 167.815 44.4607C163.665 44.2153 161.467 43.2948 160.785 42.8349C160.622 42.7243 159.918 42.0068 165.183 41.5157C170.126 41.055 174.032 41.3515 177.464 42.7097C180.992 41.2128 185.007 40.874 190.142 41.3529C195.407 41.8436 194.704 42.5615 194.54 42.6721C193.858 43.1324 191.66 44.0525 187.51 44.2979C183.368 44.5428 182.029 42.3347 182.029 42.3347C182.029 42.3347 180.86 42.3583 178.807 43.3188C182.116 45.0665 184.94 48.5099 184.94 48.5099C184.94 48.5099 184.197 49.338 183.732 49.4917ZM186.922 40.586C185.9 40.4019 187.743 38.178 189.693 36.4139C191.644 34.6498 193.533 33.1619 193.734 33.3156C193.936 33.4689 193.219 37.1413 191.954 38.6687C190.468 40.4631 187.944 40.7702 186.922 40.586ZM191.505 40.8926C191.288 40.6777 192.093 39.4813 195.841 37.3957C199.588 35.3097 201.569 34.8494 201.662 35.1255C201.712 35.2738 200.269 38.4691 197.296 40.1874C194.376 41.8744 191.66 41.1076 191.505 40.8926ZM194.044 37.242C193.704 37.1499 193.951 34.8494 194.818 31.8735C195.685 28.8977 196.862 26.9654 197.234 27.1187C197.457 27.2107 198.472 29.4809 197.698 32.7633C196.924 36.0457 194.261 37.334 194.044 37.242ZM197.389 35.8461C197.064 35.7387 198.581 32.9166 200.563 30.6922C202.545 28.4678 204.976 26.3817 205.146 26.4892C205.317 26.5967 204.482 30.1258 202.7 32.2567C200.609 34.7573 197.714 35.9536 197.389 35.8461ZM199.231 31.0758C198.798 31.1679 198.287 28.5141 198.101 25.784C197.916 23.0599 198.117 20.9829 198.55 20.9679C198.873 20.9566 200.64 23.8209 200.749 26.0602C200.919 29.5689 199.665 30.9838 199.231 31.0758ZM205.843 17.9155C206.01 18.042 206.258 21.0718 205.285 23.6676C204.077 26.8887 201.927 28.2184 201.662 28.1313C201.244 27.993 202.269 24.1292 203.071 22.3334C204.016 20.216 205.518 17.6701 205.843 17.9155ZM198.581 15.2467C198.875 15.17 200.733 17.1024 201.569 19.281C202.406 21.4591 201.91 24.3274 201.647 24.4807C201.383 24.634 200.176 22.4867 199.293 20.0632C198.411 17.6393 198.287 15.3233 198.581 15.2467ZM201.693 17.164C201.502 17.4048 199.767 15.4448 198.612 13.6975C197.466 11.9643 196.537 9.50999 196.816 9.37213C197.095 9.23381 198.581 9.90906 200.285 12.0563C202.042 14.2721 201.925 16.8724 201.693 17.164ZM202.204 12.8386C201.864 13.0073 200.191 10.9521 199.556 9.52541C198.822 7.87469 198.132 5.27664 198.457 5.15374C198.782 5.0313 200.687 6.77996 201.569 8.58985C202.57 10.641 202.601 12.6418 202.204 12.8386ZM203.799 9.87823C204.109 9.93945 204.898 12.7924 204.806 16.0444C204.713 19.2959 203.118 20.6151 202.901 20.6151C202.685 20.6151 202.375 18.2225 202.53 15.1546C202.684 12.0867 203.489 9.81655 203.799 9.87823Z" fill="#375475"/>
<path fill-rule="evenodd" clip-rule="evenodd" d="M19.9262 29.4827C19.9262 30.1861 19.8666 33.6412 18.8028 36.3939C17.6199 39.4396 14.4868 40.6114 12.1806 40.6114C6.79984 40.6114 5.61694 36.8633 5.61694 31.767V14.371H0V34.0517C0 39.9675 3.54732 44.6534 9.75662 44.6534C13.8949 44.6534 17.6798 43.1306 19.9262 39.4401H20.0443V43.775H25.5431V14.3714H19.9262V29.4827Z" fill="#375475"/>
<path fill-rule="evenodd" clip-rule="evenodd" d="M36.251 14.371H30.7517V43.7745H36.3686V27.7844C36.3686 22.0436 37.9059 20.7548 38.7344 19.9353C41.0993 17.5917 44.1738 17.7681 44.1738 17.7681C48.904 17.7681 50.9736 20.4038 50.9736 25.2657V43.7745H56.5896V23.4495C56.5896 14.0195 47.4254 13.4921 45.3562 13.4921C42.3999 13.4921 38.2606 15.0149 36.3686 18.7055H36.2505L36.251 14.371Z" fill="#375475"/>
<path fill-rule="evenodd" clip-rule="evenodd" d="M66.8676 43.775V14.3714H61.2507V43.775H66.8676ZM60.7183 7.5178H67.4V1.48498H60.7183V7.5178Z" fill="#375475"/>
<path fill-rule="evenodd" clip-rule="evenodd" d="M95.4856 23.8014C95.1899 17.4175 90.4602 13.493 84.1927 13.493C74.7918 13.493 70.4163 20.6977 70.4163 29.3081C70.4163 37.9766 74.2003 44.6539 83.7203 44.6539C90.283 44.6539 95.2494 40.6123 95.7223 33.9932H90.1054C89.8106 38.2106 87.5043 40.6123 83.7789 40.6123C78.3982 40.6123 76.3295 35.9854 76.3295 29.0732C76.3295 22.162 78.3982 17.535 83.7789 17.535C87.7991 17.535 89.5739 20.1117 89.8687 23.8018H95.4856V23.8014Z" fill="#375475"/>
<path fill-rule="evenodd" clip-rule="evenodd" d="M124.398 30.1271V27.3744C124.398 19.2324 120.2 13.6681 111.33 13.4926C101.929 13.4926 97.5539 20.6972 97.5539 29.3077C97.5539 37.9762 101.339 44.6534 110.858 44.6534C117.952 44.6534 123.156 41.3144 124.043 34.6371H118.13C117.479 38.9136 115.291 40.6119 110.916 40.6119C105.18 40.6119 103.052 35.2815 103.466 30.1271H124.398ZM103.466 26.2616C103.466 21.4586 106.245 17.5341 110.916 17.5341C116.356 17.5341 118.602 21.3416 118.484 26.2616H103.466Z" fill="#375475"/>
<path fill-rule="evenodd" clip-rule="evenodd" d="M135.758 43.775V18.2365H142.616V14.371H135.758V9.68548C135.58 6.46433 137.413 5.64396 140.606 5.64396C141.552 5.64396 142.498 5.76096 143.444 5.81991V1.19202C142.084 0.958021 140.784 0.606564 139.423 0.606564C135.225 0.606564 130.318 2.30535 130.14 8.74766V14.371H124.346V18.2365H130.14V43.775H135.758Z" fill="#375475"/>
</svg>
