<svg width="205" height="70" viewBox="0 0 205 70" fill="none" xmlns="http://www.w3.org/2000/svg">
<path d="M68.8435 23.4994H45.8951V0.5H22.9484V23.4994H0V46.4988H22.9484V69.5H45.8951V46.4988H68.8435V23.4994Z" fill="#375475"/>
<path d="M162.527 20.3184H157.837V32.137H162.527V20.3184Z" fill="#375475"/>
<path d="M162.527 16.0305H157.837V19.1549H162.527V16.0305Z" fill="#375475"/>
<path fill-rule="evenodd" clip-rule="evenodd" d="M110.504 32.1219H105.398L104.648 29.716H98.8324L98.0716 32.1219H92.9703C93.1298 31.7047 99.0221 16.2426 99.0961 16.0433H104.521C104.595 16.2449 110.346 31.7093 110.504 32.1219ZM101.788 20.0739L99.8731 26.281H103.654L101.788 20.0739Z" fill="#375475"/>
<path fill-rule="evenodd" clip-rule="evenodd" d="M104.125 46.909L104.22 47.0666C104.22 47.0666 107.804 53.0211 108.072 53.4661H102.818L99.6108 47.6461H97.8626V53.4661H93.0965V37.3828H100.927C102.196 37.3828 103.78 37.4361 104.816 37.8742C106.786 38.7133 107.487 40.841 107.487 42.4635C107.487 43.7313 107.092 44.8462 106.308 45.6435C105.729 46.2652 105.125 46.5077 104.424 46.789L104.125 46.909ZM97.8626 44.5031H100.151C100.88 44.5033 102.742 44.5037 102.742 42.5423C102.742 40.6023 100.897 40.5907 100.108 40.5907H97.8626V44.5031Z" fill="#375475"/>
<path fill-rule="evenodd" clip-rule="evenodd" d="M127.246 53.7621C124.129 53.7621 122.117 51.1337 122.117 47.3024C122.117 43.2926 124.614 41.341 127.089 41.341C128.747 41.341 129.461 41.99 129.933 42.4211L130.245 42.6992V37.4053H134.604V53.4677H130.382V52.339L130.104 52.6565C129.813 52.9903 129.598 53.2336 128.962 53.477C128.458 53.6694 127.896 53.7621 127.246 53.7621ZM130.167 46.0021C129.836 44.915 128.997 44.528 128.384 44.528C128.058 44.528 126.959 44.6438 126.548 46.1226V46.1296C126.453 46.563 126.409 47.0173 126.409 47.5527C126.409 48.6791 126.638 49.4742 127.11 49.9818C127.433 50.3317 127.907 50.5334 128.405 50.5334C128.862 50.5334 129.334 50.3248 129.697 49.9632C130.356 49.2795 130.356 48.1437 130.356 47.5295C130.356 46.9524 130.324 46.4749 130.167 46.0021Z" fill="#375475"/>
<path fill-rule="evenodd" clip-rule="evenodd" d="M117.087 49.1633C116.586 50.255 115.804 50.7858 114.814 50.7858C114.391 50.7858 113.785 50.6838 113.295 50.1924C112.733 49.6292 112.705 49.0405 112.684 48.512L112.675 48.3312H120.894C120.852 46.5697 120.783 44.6853 119.155 43.0721C117.7 41.6606 115.843 41.2063 114.544 41.2063C110.767 41.2063 108.231 43.8439 108.231 47.5316C108.231 49.205 108.788 50.7394 109.801 51.8636C110.941 53.1221 112.585 53.9473 114.565 53.9473C117.215 53.9473 119.268 52.6702 120.653 50.6537C120.53 50.6015 120 50.3805 119.385 50.1238C118.414 49.7186 117.229 49.2243 117.087 49.1633ZM112.733 45.8118C112.844 45.3018 113.133 44.0317 114.657 44.0317C115.351 44.0317 116.151 44.4396 116.378 45.3575L116.428 45.6611L116.463 46.018H112.689L112.733 45.8118Z" fill="#375475"/>
<path d="M119.577 25.0461C119.624 25.2848 119.647 25.5259 119.647 25.7576V32.1223H124.006V25.8272C124.006 25.5768 124.006 25.06 124.251 24.601C124.547 24.0425 125.014 23.7574 125.807 23.7574C127.543 23.7574 127.539 25.1398 127.537 25.8713L127.537 25.9407V32.1223H131.894C131.894 31.8187 131.896 24.5107 131.896 24.5107L131.894 24.5014C131.873 23.4143 131.847 22.1836 130.828 21.1823C130.111 20.4614 128.959 20.0489 127.671 20.0489C124.875 20.0489 124.096 21.5346 123.876 22.0306L123.744 22.3365L123.594 22.0399C123.289 21.4535 122.877 20.779 121.393 20.3154C120.697 20.0952 120.063 20.0489 119.649 20.0489C117.31 20.0489 116.655 21.1241 116.28 21.7408C116.266 21.7631 116.253 21.7848 116.24 21.8058L115.924 22.3203V20.3432H111.768V32.1223H116.129V25.7066L116.134 25.6302C116.155 25.2292 116.183 24.7308 116.629 24.2812C116.96 23.9474 117.371 23.7574 117.919 23.7574C118.611 23.7574 119.362 24.0934 119.577 25.0461Z" fill="#375475"/>
<path fill-rule="evenodd" clip-rule="evenodd" d="M140.228 29.4191C141.217 29.4191 141.999 28.8929 142.501 27.8013C142.732 27.8986 145.752 29.1572 146.069 29.287C144.679 31.3058 142.628 32.5829 139.978 32.5829C138.003 32.5829 136.354 31.7577 135.216 30.4992C134.201 29.375 133.646 27.8383 133.646 26.1672C133.646 22.4796 136.181 19.8419 139.957 19.8419C141.259 19.8419 143.114 20.2962 144.568 21.7077C146.194 23.3186 146.263 25.203 146.31 26.9668H138.089L138.096 27.1453C138.119 27.6738 138.149 28.2671 138.711 28.828C139.199 29.3194 139.804 29.4191 140.228 29.4191ZM140.073 22.6627C138.549 22.6627 138.257 23.9375 138.149 24.4474L138.102 24.6537H141.879L141.844 24.299L141.789 23.9908C141.567 23.0729 140.766 22.6627 140.073 22.6627Z" fill="#375475"/>
<path d="M152.174 20.2529H147.995V32.1224H152.331V26.5457L152.331 26.5414C152.354 25.7918 152.415 23.8269 155.305 23.8269C155.571 23.8269 155.998 23.8408 156.26 23.8571V20.0721C154.632 20.0767 153.651 20.3757 152.437 21.4628L152.174 21.6969V20.2529Z" fill="#375475"/>
<path d="M175.097 30.5935C175.617 30.072 175.955 29.4949 176.23 28.9154C176.045 28.8137 174.191 27.7948 173.305 27.3076L172.861 27.0635C172.62 27.8377 172.049 29.124 170.638 29.124C169.646 29.124 168.462 28.628 168.462 26.2569C168.462 24.1964 169.339 22.9146 170.752 22.9146C171.764 22.9146 172.484 23.5265 172.854 24.7921C173.15 24.6252 175.976 23.0259 176.223 22.8822C175.996 22.5113 175.698 22.1011 175.296 21.7001C173.531 19.9038 171.258 19.7763 170.525 19.7763C168.518 19.7763 166.876 20.4833 165.78 21.6306C164.741 22.6968 164.145 24.3679 164.145 26.1225C164.145 29.9376 166.543 32.559 170.252 32.559C172.872 32.559 174.431 31.2819 175.097 30.5935Z" fill="#375475"/>
<path fill-rule="evenodd" clip-rule="evenodd" d="M185.348 31.2379C184.774 31.6365 183.706 32.3782 181.581 32.3782C178.57 32.3782 177.492 30.3386 177.492 28.577C177.492 27.6105 177.814 26.7993 178.445 26.1642C179.491 25.0976 180.782 24.9255 182.735 24.6653L182.758 24.6623C184.057 24.4815 184.564 24.3656 185.278 24.1593L185.396 24.1268L185.392 24.0017C185.366 23.1024 185.061 22.5044 183.646 22.5044C182.596 22.5044 182.145 22.8126 181.958 23.7514C181.733 23.756 178.241 23.8487 177.895 23.858C178.063 22.8335 178.399 21.6213 179.93 20.8147C180.94 20.2886 182.298 19.9386 184.076 19.9386C186.432 19.9386 188.035 20.6177 188.837 21.6514C189.503 22.509 189.503 23.5474 189.503 24.2335V30.8091C189.503 31.4604 189.556 31.7547 189.778 32.1233H185.621V31.0501L185.348 31.2379ZM182.57 27.4112H182.566C181.588 27.8029 181.511 28.3893 181.511 28.5701C181.511 28.9827 181.867 29.5111 182.829 29.5111C183.514 29.5111 184.684 29.1287 185.13 28.139C185.371 27.6105 185.371 27.1956 185.371 26.7831V26.5605L185.11 26.6533L185.025 26.6827C184.624 26.8219 184.21 26.9655 183.785 27.0867L183.662 27.1145L183.599 27.1294C183.265 27.208 182.921 27.289 182.573 27.4089L182.57 27.4112Z" fill="#375475"/>
<path d="M199.719 25.6652V32.1226H204.08V24.6639C204.08 24.0311 204.08 22.1815 202.947 21.0713C202.221 20.3852 201.224 20.0213 199.943 20.0213C197.565 20.0213 196.785 21.1385 196.37 21.7329L196.353 21.7565L196.327 21.7945L196.019 22.2302V20.3203H191.91V32.1226H196.269V25.8274C196.269 25.3082 196.292 23.7321 198.033 23.7321C199.726 23.7321 199.721 25.0483 199.719 25.6107C199.719 25.6297 199.719 25.6479 199.719 25.6652Z" fill="#375475"/>
<path d="M145.612 45.2337C145.612 46.5688 145.882 47.7091 146.391 48.5319C147.006 49.5286 147.938 50.0339 149.154 50.0339C150.257 50.0339 151.777 49.4312 152.549 47.3081C152.728 47.3939 154.23 48.1227 155.362 48.6719L155.371 48.6765C156.008 48.9857 156.526 49.237 156.621 49.2829C156.247 49.9898 155.745 50.9077 155.035 51.6169C153.52 53.1142 151.349 53.9695 148.925 53.9695C146.349 53.9695 144.21 53.0331 142.746 51.3156C141.477 49.8299 140.776 47.6906 140.776 45.5281C140.776 43.3447 141.537 41.0756 142.86 39.5249C144.356 37.7727 146.453 36.8131 148.925 36.8131C151.4 36.8131 153.643 37.7495 155.234 39.3928C155.854 40.0302 156.286 40.7719 156.596 41.3398C156.508 41.3837 156.066 41.6049 155.504 41.8857C154.376 42.4494 152.767 43.2534 152.586 43.3447C152.184 42.4037 151.293 40.5911 149.129 40.5911C147.947 40.5911 147.203 41.1636 146.863 41.502C145.612 42.7096 145.612 44.6102 145.612 45.2337Z" fill="#375475"/>
<path fill-rule="evenodd" clip-rule="evenodd" d="M178.497 42.8758C177.982 42.3868 176.479 41.2093 173.681 41.1838C171.569 41.1722 169.814 41.8328 168.609 43.0358C167.485 44.1529 166.893 45.8357 166.893 47.6667C166.893 49.3147 167.437 50.9372 168.422 51.9987C169.564 53.2364 171.296 53.9225 173.433 53.9225C175.535 53.9225 177.288 53.2944 178.497 52.1656C179.668 51.0716 180.285 49.4097 180.285 47.5972C180.285 45.8264 179.603 43.9374 178.497 42.8758ZM173.57 50.8074C171.537 50.8074 171.229 48.7538 171.229 47.53C171.229 46.3549 171.532 44.3754 173.539 44.3245C174.171 44.3036 174.684 44.4844 175.073 44.8599C175.609 45.3814 175.882 46.2645 175.882 47.4836C175.882 50.2302 174.624 50.8074 173.57 50.8074Z" fill="#375475"/>
<path d="M187.792 45.6882C189.862 46.1611 190.355 46.2746 190.91 46.562C192.04 47.1716 192.665 48.2772 192.665 49.5567C192.665 51.791 190.986 53.9188 187.237 53.9188C183.997 53.9188 182.053 52.3321 181.072 51.5319L181.038 51.5036C181.269 51.2927 183.253 49.4639 183.445 49.2855C183.854 49.6888 184.411 50.1546 185.269 50.5209C185.933 50.7897 186.562 50.9195 187.193 50.9195C187.88 50.9195 188.576 50.6437 188.576 50.0341C188.576 49.3573 187.752 49.2369 187.288 49.169L187.26 49.1649C186.849 49.0977 185.885 48.9378 184.832 48.6249C183.734 48.305 181.697 47.6468 181.697 45.2525C181.697 44.3207 182.111 43.2569 182.83 42.5569C183.75 41.6807 185.11 41.1963 186.874 41.1963C187.721 41.1963 188.579 41.3006 189.492 41.5115C190.973 41.8658 191.856 42.5368 192.42 42.9657L192.422 42.9671C192.284 43.0908 191.585 43.7295 190.984 44.2782L190.981 44.2811L190.98 44.2825C190.535 44.6884 190.146 45.0441 190.079 45.1041C189.293 44.6128 188.185 43.9383 186.946 43.9383C185.935 43.9383 185.785 44.4204 185.785 44.7124C185.785 45.192 186.139 45.2793 187.611 45.643L187.7 45.6651L187.792 45.6882Z" fill="#375475"/>
<path d="M203.247 46.562C202.694 46.2746 202.202 46.1611 200.128 45.6882L200.037 45.6651L199.942 45.6415C198.477 45.279 198.123 45.1913 198.123 44.7124C198.123 44.4204 198.275 43.9383 199.284 43.9383C200.523 43.9383 201.631 44.6128 202.419 45.1041L202.658 44.886C203.221 44.3707 204.563 43.1437 204.762 42.9671L204.754 42.9611C204.187 42.5321 203.305 41.8645 201.832 41.5115C200.916 41.3006 200.061 41.1963 199.212 41.1963C197.447 41.1963 196.088 41.6807 195.167 42.5569C194.448 43.2569 194.036 44.3207 194.036 45.2525C194.036 47.6468 196.076 48.305 197.168 48.6249C198.222 48.9378 199.186 49.0977 199.598 49.1649L199.624 49.1687C200.089 49.2364 200.912 49.3561 200.912 50.0341C200.912 50.6437 200.218 50.9195 199.531 50.9195C198.9 50.9195 198.271 50.7897 197.605 50.5209C196.749 50.1546 196.194 49.6888 195.782 49.2855C195.59 49.4639 193.606 51.2927 193.375 51.5036L193.412 51.5335C194.393 52.3342 196.334 53.9188 199.575 53.9188C203.326 53.9188 205 51.791 205 49.5567C205 48.2772 204.378 47.1716 203.247 46.562Z" fill="#375475"/>
<path d="M157.794 41.6173H161.972V43.0613L162.236 42.8295C163.452 41.7401 164.433 41.4434 166.061 41.4342V45.2238C165.8 45.2052 165.369 45.1867 165.104 45.1867C162.211 45.1867 162.153 47.1638 162.132 47.9078V53.4868H157.794V41.6173Z" fill="#375475"/>
</svg>
