<svg width="199" height="62" viewBox="0 0 199 62" fill="none" xmlns="http://www.w3.org/2000/svg">
<path d="M44.3232 22.7496L44.4109 22.5302L44.1479 22.0914L44.2794 21.7403L44.4986 21.3892L45.1123 21.082L45.3754 21.4331L45.1123 21.5647L45.2439 21.8281L45.3754 21.9158L45.2877 22.0036L44.6301 21.5647L44.4109 21.9158L44.8931 22.5302L44.6739 22.9252L44.0163 23.1446L43.9725 22.8374L44.3232 22.7496ZM64.5777 27.4453C64.0516 24.7683 62.561 22.3547 60.4567 20.6871C59.0538 19.5022 58.6592 19.195 58.1331 18.4489C60.1498 25.295 63.3063 25.3388 64.6654 30.5173C64.8846 27.8403 70.4086 23.4079 65.1915 15.9475C66.5067 19.4144 64.49 24.154 64.5777 27.4453ZM54.9327 12.3489C56.774 18.4489 61.1581 17.0885 64.0955 23.4518C63.7886 21.3014 66.2437 14.4554 60.5005 10.2424C62.4295 12.5683 61.8596 16.9568 62.9556 19.8094C60.7636 15.0259 55.9849 14.236 54.9327 12.3489ZM23.3672 18.6683C23.4111 18.5367 23.4549 18.3611 23.4549 18.2295C23.2795 18.2734 23.148 18.3173 22.9727 18.2734L23.3672 18.6683ZM56.1603 11.6906C57.4755 13.2705 59.7991 14.1921 61.1143 15.7719C60.1498 11.1201 56.5548 7.25828 52.3023 6.33669C54.4066 7.91655 54.845 10.0669 56.1603 11.6906ZM38.6239 8.26762L39.1938 8.31151L39.413 8.09209L38.9746 7.87266L37.7909 7.82878L37.484 8.0482L36.8264 7.96043V8.13597C37.2648 8.17985 37.7032 8.22374 38.054 8.26762H38.6239ZM151.646 22.9252C151.646 19.1511 153.663 16.1669 156.907 16.1669C159.669 16.1669 161.992 17.7468 161.992 22.9691V23.5835H154.671C154.671 25.7338 155.548 27.0504 157.915 27.0504C159.756 27.0504 160.677 26.4799 161.247 26.0849L161.335 28.4547C160.151 28.9813 158.836 29.2885 157.564 29.2885C153.443 29.2885 151.646 26.3482 151.646 22.9252ZM154.583 21.6525H158.967C158.967 19.4144 158.222 18.2734 156.819 18.2734C155.241 18.2295 154.583 19.941 154.583 21.6525ZM40.0706 15.8597C38.9746 15.377 37.7909 15.0698 36.6072 14.8942V15.6842C37.7032 15.8597 38.7992 16.1669 39.8076 16.5619C39.9391 16.2986 40.0268 16.0791 40.0706 15.8597ZM93.4251 22.7058C93.4689 17.5273 96.4501 16.1669 99.0367 16.1669C101.623 16.1669 104.605 17.5273 104.605 22.7058C104.605 28.0597 101.623 29.2885 99.0367 29.2885C96.4501 29.2446 93.4251 28.0158 93.4251 22.7058ZM96.5816 22.7058C96.5816 24.8561 97.0639 27.0942 99.0367 27.0942C101.01 27.0942 101.492 24.8122 101.492 22.7058C101.492 20.5554 101.053 18.3173 99.0367 18.3173C97.0639 18.3612 96.5816 20.5993 96.5816 22.7058ZM178.696 10.5496H175.671V29.0691H178.696V10.5496ZM117.099 10.5496H114.03V29.0691H117.099V10.5496ZM60.2813 25.3827C59.9744 31.5705 63.4817 32.6676 63.2187 38.0655C64.6654 34.2914 70.4086 33.2381 68.2604 24.1978C68.3042 27.6648 65.2353 29.6396 63.9201 35.0813C64.1832 28.9813 61.8158 28.323 60.2813 25.3827ZM33.4068 19.1511C33.8891 19.0194 34.3275 18.9317 34.8097 18.8L35.7304 18.5806C35.7742 16.2986 35.9934 6.6 35.9934 6.51223C36.2126 4.93237 37.7909 0.5 34.6344 0.5C31.6093 0.5 32.8807 5.02014 33.0999 6.51223C33.0999 6.6 33.3191 16.7813 33.4068 19.1511ZM36.3003 32.9748H36.2126C36.2126 33.1504 36.1688 33.9403 36.1688 34.3353C36.6072 34.1158 36.9141 33.8964 36.9141 33.5453C36.9579 33.3698 36.6949 33.1504 36.3003 32.9748ZM32.7054 25.9532C32.6615 25.1633 32.6615 24.3295 32.6615 24.1978H32.6177C31.9601 24.5928 31.6093 25.0755 31.5655 25.7338C31.5655 26.3921 31.9601 26.8309 32.6615 27.2698V26.9626L32.2231 26.4799L32.4423 26.041L32.7054 25.9532ZM29.9872 10.3741C30.7764 9.97914 31.5655 9.67194 32.3985 9.40864C32.3985 10.2424 32.4423 11.164 32.4423 12.1734C31.6093 12.4806 30.864 13.0511 30.3379 13.7532C29.8118 14.4554 28.0582 15.5964 26.8745 16.2547C25.8223 16.8691 25.2524 16.913 24.9893 16.8252C24.7701 17.0007 24.2002 17.4835 23.5864 18.9755C23.6741 18.6245 23.7618 18.2295 23.8933 17.8784C23.8933 17.8784 23.1042 18.2295 22.5343 17.9662C23.148 18.054 23.7618 17.8345 24.1564 17.3518C24.3756 17.1324 24.5071 16.8252 24.5948 16.518C24.5948 16.518 24.5071 16.123 24.9017 15.4209C25.1647 14.982 25.2085 14.1043 25.5593 13.5777C25.91 13.0511 26.3046 12.5683 26.6991 12.0856C27.9267 10.6813 29.1542 10.6374 29.9872 10.3741ZM28.3651 12.8317L27.5321 12.7878L26.7868 14.0165L27.4006 13.8849L28.3651 12.8317ZM34.6782 34.8619C34.8974 34.7741 35.1166 34.7302 35.3358 34.6424C35.3358 33.9842 35.555 24.9439 35.555 23.2763C34.8536 23.4518 34.1521 23.6273 33.4506 23.8906C33.4945 25.1194 33.6699 34.1597 33.6699 35.1252C34.0644 35.0374 34.3713 34.9058 34.6782 34.8619ZM27.576 25.646C27.576 28.9813 30.2503 30.2101 32.8369 31.0439C32.8369 30.0784 32.793 29.1129 32.7492 28.1475C31.5655 27.6209 30.7764 26.8748 30.7764 25.6899C30.7764 24.505 31.5217 23.8468 32.6177 23.3201C32.8369 23.2324 33.1438 23.1007 33.4506 23.013C34.1083 22.7935 34.8536 22.618 35.5989 22.3986L36.4318 22.1791C40.0706 21.3014 44.1917 20.1604 44.1917 15.2453C44.1917 12.7878 42.3942 10.0669 38.054 9.10144C37.6155 9.01367 37.1771 8.96978 36.7387 8.9259C36.7387 9.27698 36.6949 10.1547 36.6949 10.1547C36.6949 10.418 36.651 11.4273 36.651 11.6029C36.9141 11.6468 37.221 11.6906 37.484 11.6906C40.0268 12.305 40.9475 13.7532 40.9475 15.1576C40.9475 17.4835 38.9308 18.3612 36.5195 19.0633L35.6865 19.2827C34.9412 19.4583 34.1521 19.6338 33.4068 19.8532C33.1438 19.941 32.8807 19.9849 32.5738 20.0727C29.8995 20.9942 27.576 22.3108 27.576 25.646ZM34.2398 38.8554C34.0206 38.9432 33.8014 39.0309 33.8014 39.0748C33.8014 39.0748 34.0206 49.5194 34.0206 49.695C34.0206 51.8453 35.1166 51.8453 35.1166 49.695C35.1166 49.5633 35.3358 38.4165 35.3358 38.4165C35.3358 38.4165 35.0289 38.5043 34.8536 38.5921C34.7659 38.636 34.459 38.7676 34.2398 38.8554ZM40.4214 33.5892C40.4214 31.1317 38.4485 30.1662 36.3003 29.4201C36.2565 30.2101 36.2565 31.3072 36.2126 32.0971C37.1333 32.4482 37.7471 32.887 37.7471 33.5892C37.7471 34.4669 36.8264 34.9496 36.1688 35.213C35.9057 35.3007 35.5112 35.4324 35.3358 35.4763C34.8097 35.6518 34.2398 35.8273 33.7137 36.0029C33.4507 36.0906 33.1876 36.2223 32.8807 36.354C32.0039 36.8367 31.0394 37.5388 31.0394 38.7676C31.0394 40.1281 32.0039 40.8302 33.0122 41.4007C33.0122 41.1813 32.9684 39.1187 32.9684 39.0748C33.0122 38.6799 33.363 38.4165 33.7137 38.241C34.2398 38.0216 34.7659 37.8022 35.292 37.6266C35.5989 37.5389 35.8181 37.4072 36.125 37.3633C38.0978 36.7928 40.4214 36.0468 40.4214 33.5892ZM38.8431 45.877C39.0623 43.1561 37.5279 42.0151 36.0373 41.2252L35.9934 42.805C37.221 43.3755 38.3608 44.2532 38.8431 45.877ZM119.554 48.9489C119.554 49.695 119.642 50.441 119.73 51.1871H116.968C116.836 50.6166 116.748 50.046 116.792 49.4755H116.748C115.959 50.5288 115.039 51.4065 113.197 51.4065C111.225 51.4065 109.427 50.046 109.427 47.6763C109.427 44.2094 112.233 43.3317 116.135 43.3317H116.748V42.8489C116.748 41.5763 116.135 40.3914 114.381 40.3914C113.11 40.4352 111.926 40.8741 110.918 41.664L110.698 39.2065C111.97 38.5482 113.329 38.241 114.732 38.241C118.677 38.241 119.598 40.1719 119.598 43.3755L119.554 48.9489ZM116.748 45.7014L116.705 44.9554H116.442C113.855 44.9554 112.277 45.482 112.277 47.3691C112.189 48.3784 112.978 49.2561 113.986 49.3439H114.206C116.047 49.3439 116.748 47.9835 116.748 45.7014ZM141.869 21.477H146.999V29.1129H150.155V11.8223H146.999V18.8439H141.869V11.8223H138.669V29.0691H141.869V21.477ZM134.416 36.0468H137.617V33.0187H134.416V36.0468ZM105.306 38.5043H108.068C108.024 39.1626 107.98 39.8209 107.98 40.523V49.8705C107.98 53.864 106.753 56.6727 102.106 56.6727C100.615 56.6727 99.1244 56.4094 97.7215 55.8827L97.853 53.1619C98.9929 53.8201 100.308 54.2151 101.623 54.259C104.517 54.259 104.955 52.2403 104.955 50.2655V49.0367H104.911C104.385 50.0022 103.552 51.1871 101.58 51.1871C99.8259 51.1871 97.1516 50.0022 97.1516 44.8676C97.1516 41.3568 98.423 38.2849 101.755 38.2849C103.596 38.2849 104.473 39.3381 105.087 40.4353H105.174C105.174 39.777 105.262 39.1626 105.306 38.5043ZM104.999 44.6921C104.999 42.0151 103.991 40.6108 102.544 40.6108C100.922 40.6547 100.308 42.1468 100.308 44.6921C100.308 47.6763 101.273 48.905 102.325 48.905C104.21 48.9489 104.999 47.5885 104.999 44.6921ZM134.504 51.1871H137.529V38.4604H134.504V51.1871ZM123.281 29.2885C120.124 29.2885 118.809 26.2604 118.809 22.7496C118.809 18.5806 120.475 16.1669 123.193 16.1669C124.596 16.0791 125.911 16.913 126.481 18.1856H126.525V10.5496H129.594V26.9187C129.594 27.6209 129.638 28.3669 129.682 29.0691H126.788C126.7 28.4108 126.7 27.7525 126.7 27.0942H126.613C126.13 28.1914 125.21 29.2885 123.281 29.2885ZM124.07 27.0065C125.867 27.0065 126.481 25.0317 126.481 22.6619C126.481 20.2043 125.824 18.405 124.114 18.405C122.404 18.405 121.834 20.0727 121.834 22.618C121.834 25.5583 122.316 27.0065 124.07 27.0065ZM111.882 18.9755C112.145 18.9755 112.452 19.0633 112.715 19.1072V16.2108C112.54 16.1669 112.364 16.123 112.189 16.123C110.26 16.123 109.296 17.659 108.945 18.6245H108.901C108.901 17.8345 108.813 17.0446 108.813 16.2986H106.051C106.139 17.0007 106.139 17.7029 106.139 18.405L106.183 29.0691H109.208V22.0914C109.208 19.7655 110.611 18.9755 111.882 18.9755ZM159.844 48.9489C159.844 49.695 159.932 50.441 160.02 51.1871H157.258C157.126 50.6166 157.038 50.046 157.082 49.4755H157.038C156.249 50.5288 155.329 51.4065 153.487 51.4065C151.514 51.4065 149.717 50.046 149.717 47.6763C149.717 44.2094 152.523 43.3317 156.425 43.3317H157.038V42.8489C157.038 41.5763 156.425 40.3914 154.671 40.3914C153.4 40.4352 152.216 40.8741 151.207 41.664L150.988 39.2065C152.26 38.5482 153.619 38.241 155.022 38.241C158.967 38.241 159.888 40.1719 159.888 43.3755V48.9489H159.844ZM156.994 44.9554H156.688C154.101 44.9554 152.523 45.482 152.523 47.3691C152.435 48.3784 153.224 49.2561 154.232 49.3439H154.452C156.293 49.3439 156.951 47.9835 156.951 45.7014V44.9554H156.994ZM128.322 38.2849C126.262 38.2849 125.385 39.6453 124.947 40.4353H124.903C124.903 39.777 124.815 39.1187 124.815 38.4604H121.922C122.009 39.1626 122.009 39.8648 122.009 40.5669V51.1871H125.034V43.7705C125.034 42.1468 125.604 40.7863 127.183 40.7863C128.454 40.7863 128.936 41.6201 128.936 43.5511V51.1871H132.005V42.9806C132.093 40.4353 131.216 38.2849 128.322 38.2849ZM148.445 41.0935V38.4604H140.116V40.7863H145.377L139.94 48.554H139.896V51.1871H148.577V48.8612H143.053L148.445 41.0935ZM191.804 21.6525C191.804 20.0288 192.374 18.6683 193.952 18.6683C195.224 18.6683 195.706 19.5022 195.706 21.4331V29.0691H198.731V20.9065C198.731 18.3173 197.854 16.2108 194.961 16.2108C193.076 16.2108 192.374 17.264 191.804 18.054H191.717V10.5935H188.691V29.1129H191.717V21.6525H191.804ZM185.228 12.7878L182.203 13.7532H182.159V16.3863H180.142V18.6245H182.159V25.5583C182.159 28.2353 183.431 29.2885 185.71 29.2885C186.412 29.2885 187.113 29.1568 187.771 28.8935V26.7432C187.42 26.9187 187.026 27.0065 186.631 27.0065C185.754 27.0065 185.228 26.6115 185.228 25.2511V18.6245H187.771V16.3863H185.228V12.7878ZM195.311 38.2849C193.251 38.2849 192.374 39.6453 191.936 40.4353H191.892C191.892 39.777 191.804 39.1187 191.804 38.4604H188.911C188.998 39.1626 188.998 39.8648 188.998 40.5669L189.042 51.1871H192.067V43.7705C192.067 42.1468 192.637 40.7863 194.215 40.7863C195.487 40.7863 195.969 41.6201 195.969 43.5511V51.1871H198.994V42.9806C199.082 40.4353 198.205 38.2849 195.311 38.2849ZM186.587 44.7799C186.587 50.1338 183.606 51.3626 181.019 51.3626C178.433 51.3626 175.408 50.1338 175.408 44.7799C175.452 39.6453 178.433 38.241 181.019 38.241C183.606 38.2849 186.587 39.6014 186.587 44.7799ZM183.431 44.8237C183.431 42.6734 182.992 40.4353 180.975 40.4353C178.959 40.4353 178.52 42.6734 178.52 44.8237C178.52 46.9741 179.003 49.2122 180.975 49.2122C182.992 49.2561 183.431 46.9741 183.431 44.8237ZM172.996 29.0691H170.234C170.103 28.4986 170.015 27.9281 170.059 27.3576H170.015C169.226 28.4108 168.305 29.2885 166.464 29.2885C164.491 29.2885 162.694 27.9281 162.694 25.5583C162.694 22.0914 165.5 21.2137 169.401 21.2137H170.015V20.7309C170.015 19.4583 169.401 18.2734 167.648 18.2734C166.376 18.3173 165.193 18.7561 164.184 19.546L163.965 17.0885C165.237 16.4741 166.596 16.123 167.999 16.123C171.944 16.123 172.865 18.054 172.865 21.2576V26.8309C172.821 27.577 172.909 28.323 172.996 29.0691ZM169.971 22.8374H169.665C167.078 22.8374 165.5 23.364 165.5 25.2511C165.412 26.2604 166.201 27.1381 167.209 27.2259H167.429C169.27 27.2259 169.928 25.8655 169.928 23.5835L169.971 22.8374ZM170.585 36.0468H173.742V33.0187H170.585V36.0468ZM14.9059 39.382L15.6074 40.4791L15.6512 40.3036L15.3005 39.5137L14.9059 39.382ZM170.717 51.1871H173.742V38.4604H170.673L170.717 51.1871ZM166.201 34.9058L163.176 35.8712L163.132 38.4604H161.116V40.6986H163.132V47.6763C163.132 50.3094 164.404 51.3626 166.683 51.3626C167.385 51.4065 168.086 51.2748 168.744 50.9676V48.8173C168.393 49.0367 167.999 49.0806 167.604 49.0806C166.727 49.0806 166.201 48.6856 166.201 47.3252V40.7424H168.744V38.4604H166.201V34.9058ZM10.9602 18.4489C10.4341 19.195 10.0396 19.546 8.63667 20.6871C6.48846 22.3986 4.99787 24.7683 4.51562 27.4453C4.64714 24.1101 2.63046 19.3705 3.98953 15.9475C-1.27139 23.364 4.29641 27.7964 4.51562 30.5173C5.78701 25.3388 8.94356 25.295 10.9602 18.4489ZM8.85587 25.3827C7.32144 28.323 4.91019 29.0252 5.21707 35.0813C3.94569 29.6835 0.832978 27.6648 0.876819 24.2417C-1.27139 33.2381 4.42794 34.2914 5.91853 38.1094C5.65548 32.6676 9.11892 31.5705 8.85587 25.3827ZM9.46965 45.5259C7.89137 39.6014 10.6972 37.5388 8.54899 31.8338C8.32978 35.0374 6.18158 36.6173 7.62833 42.454C5.08555 37.495 1.18371 35.6079 0 32.2288C0.131523 41.5324 7.58449 42.9367 9.46965 45.5259ZM10.3026 38.8554C10.8287 41.313 9.29428 44.9554 11.7494 48.3784C9.2066 45.5259 3.81416 44.7799 1.57827 40.4353C4.34025 51.0554 11.4863 48.8612 14.6867 51.1871C12.1001 47.3252 14.2483 44.7799 10.3026 38.8554ZM4.99787 23.5396C7.93521 17.1324 12.3193 18.4928 14.1606 12.4367C13.0646 14.2799 8.28594 15.0259 6.09389 19.8094C7.23376 16.9568 6.66383 12.6122 8.54899 10.2424C2.8935 14.5432 5.30476 21.3453 4.99787 23.5396ZM32.1354 5.50288C32.1793 5.7223 32.2231 5.89784 32.2231 6.11727C32.2231 6.11727 32.2669 6.20504 32.2669 6.2928C27.0499 6.81942 22.2274 9.10144 18.5009 12.7439L21.2629 15.5086C22.4904 14.3237 23.8495 13.3144 25.3401 12.4806C25.1209 12.7439 24.9017 13.0072 24.7263 13.3144C24.6386 13.4899 24.5948 13.6655 24.5071 13.8849C23.5426 14.5432 22.6219 15.2892 21.7451 16.0791L23.3234 17.659C23.1042 17.7468 22.8411 17.8345 22.6219 17.8784H22.4466L21.1752 16.6058C17.9748 19.9849 16.1773 24.4173 16.0896 29.0691H20.0353C20.123 25.4705 21.4821 22.0036 23.981 19.4144L23.6741 19.1072C23.8056 18.8 23.9372 18.5806 24.0248 18.405L24.5071 18.8878C26.6553 16.7813 29.4611 15.4209 32.4423 14.982V15.7719C29.6803 16.2108 27.0499 17.4835 25.0332 19.4144L27.7952 22.1791C27.006 23.1885 26.6553 24.4612 26.6991 25.7777C26.6553 27.7086 27.6636 29.5079 29.2858 30.4734C29.7242 30.7806 30.2064 31 30.6887 31.2194C30.864 31.5705 31.0832 31.8777 31.3463 32.1849L31.8724 31.6583C32.1354 31.746 32.3985 31.8777 32.7054 31.9216L31.9162 32.7115C32.1793 32.9309 32.4861 33.1065 32.8369 33.2381V34.0719C32.3108 33.8964 31.8285 33.5892 31.3901 33.2381L28.6281 36.0029C29.1981 36.5295 29.8995 36.9683 30.601 37.3194C30.4695 37.5388 30.3818 37.8022 30.3379 38.0655C29.505 37.6705 28.7597 37.1439 28.0582 36.5295L25.2962 39.2942C27.4444 41.313 30.1626 42.4978 33.0999 42.8489V43.6389C30.4695 43.3755 27.9705 42.3662 25.8662 40.7424L25.9538 40.9619L25.7346 41.4885L24.3317 41.4007L23.8056 41.9712L22.7973 41.8835L22.0958 42.6295C25.1209 45.5259 29.0666 47.2813 33.2753 47.5885V48.3784C28.8912 48.0273 24.7263 46.2281 21.4821 43.2L18.7201 45.9648C27.6636 54.4784 41.7804 54.4784 50.6363 45.877L47.8743 43.1122C44.6301 46.1842 40.4214 48.0712 35.9496 48.3784V47.5885C36.9579 47.5007 38.0101 47.3691 39.0184 47.1058C39.2815 47.018 39.6322 46.7986 39.6761 45.9209C39.8953 42.4101 37.8347 41.1374 36.0811 40.3036L36.125 38.1532C37.221 37.8022 38.4485 37.495 39.413 36.8367L39.5007 36.7489L39.5884 36.705C40.6844 36.0029 41.342 34.7741 41.2982 33.5014C41.2982 30.4734 38.7554 29.2885 36.388 28.4986C36.388 27.1381 36.4757 24.4173 36.4757 24.4173L37.484 24.9439L37.8786 24.8561L38.2732 24.9439L38.2293 24.5928L38.0101 24.505V24.154L37.7909 24.1978L38.4485 23.3201L38.7116 23.4518L38.0101 24.1101L38.2293 24.0662L38.4924 23.8029L39.6322 23.5835L39.7199 23.6712L40.8159 22.5741L40.6406 22.4424H40.3775L39.983 22.5302L39.8953 22.618L39.6761 22.7058L39.6322 22.8374L39.3692 22.7935L38.9746 22.8813L38.7992 22.618L39.3692 22.3986L39.5884 22.618L39.7199 22.2669L40.0706 22.0914L40.2022 21.9597L39.983 21.7842C40.246 21.6964 40.509 21.5647 40.8159 21.4331C40.9913 21.6086 41.1667 21.7403 41.342 21.9158L44.1479 19.1511L43.9286 18.9755C44.1917 18.5806 44.4547 18.0978 44.5863 17.6151L44.937 18.2734L45.8576 17.3518L45.5508 16.8691L46.033 16.7813L45.0247 15.5086V15.0259C45.0247 13.7971 44.6739 12.5683 43.9286 11.559L44.2794 11.4712L44.4547 11.2518L46.5153 12.3489L47.1729 13.0511L47.4798 14.1482L47.3921 14.4554L47.8305 14.4115L48.1812 14.5871L48.0935 15.0698L50.724 12.4367C46.9537 8.75036 42.0435 6.42446 36.8264 5.94172C36.8702 5.7223 36.9141 5.54676 36.9579 5.28345L37.0018 5.1518C49.1896 6.42446 58.44 16.6496 58.44 28.9374C58.4838 42.1468 47.7866 52.8986 34.5905 52.8986C22.3589 52.9424 12.1439 43.6827 10.8726 31.5266C9.46964 18.6245 18.9831 6.86331 32.1354 5.50288ZM48.5319 16.0791C48.8827 16.4741 49.2334 16.913 49.5841 17.3079L50.5486 18.1417L51.3816 19.2827L52.0831 20.5115L51.9954 20.7309L51.7323 20.5993L51.6885 20.6871C53.0037 23.2763 53.7052 26.1727 53.7052 29.0691H57.6509C57.5632 23.1885 55.3273 17.5712 51.2501 13.3583L48.5319 16.0791ZM45.1562 19.3705C45.6823 19.941 46.1207 20.5554 46.5591 21.2137L46.7783 20.7309L46.9975 20.8626L46.866 21.477L47.2167 21.3453L47.3044 21.477L47.0413 21.6086L47.129 21.8281L47.0413 21.9158L46.9537 21.7842C47.0852 21.9597 47.1729 22.1353 47.3044 22.3547L47.6113 22.3108L47.8305 22.618V23.0568L48.1812 23.5396L48.0058 23.8029C48.1374 24.1101 48.5319 24.8122 48.5319 24.8122L48.8827 24.7683L48.7073 23.6273L48.6196 22.9691L48.2689 21.9597L47.7428 20.9504L46.866 19.6777L46.9537 19.4583L47.8305 20.0727L47.699 20.2043L47.4359 20.0727L48.5319 21.6525L49.0142 23.1885L49.1896 24.505L48.9704 25.7777L48.795 25.9971C49.0142 26.9626 49.1457 27.9719 49.1457 28.9813H53.0914C53.0476 26.3921 52.4776 23.8468 51.3816 21.477L50.724 21.6964L49.058 19.7655L48.795 19.8094L47.4798 18.9755L47.5674 18.5806L47.3482 18.3173L46.3837 18.2734L45.1562 19.3705ZM45.9015 27.7525L45.8576 27.9719L45.3754 28.0597L45.2 28.1914L45.1123 28.4108L44.7178 28.718L44.8055 29.0252H48.2689C48.2251 28.3669 48.1812 27.6209 48.0497 26.9626L47.5674 27.7525V27.4014L47.9182 26.3043C47.8305 26.0849 47.8305 25.9094 47.7428 25.6899L47.6113 26.2604L47.4359 26.6115L47.0413 26.8309L46.866 27.182L46.1645 27.2698L45.4631 27.6209L45.9015 27.7525ZM41.2543 24.9878L41.342 25.1633L41.5174 24.7683H41.3859L41.2543 24.505L41.5612 24.4173L41.912 24.6806L42.0435 24.2417C41.8243 23.8906 41.5612 23.5835 41.2982 23.2763L40.9036 23.7151L40.8159 24.4612L41.1667 24.6806V24.7683L40.8159 24.8561L41.2543 24.9878ZM42.438 37.7583L42.175 37.495L41.6489 37.2317L40.9475 36.705C40.7282 36.8806 40.5529 37.0561 40.2898 37.2317L40.7283 37.4072L41.2105 37.7583L41.4735 37.6705L42.3065 37.8899L42.438 37.7583ZM42.7449 23.8906H43.1833L43.008 23.6712C43.0518 23.6712 43.3587 23.5835 43.3587 23.5835L43.6217 23.6712L43.3587 23.759L43.271 23.8468L43.5779 24.0662L44.4109 25.0755L44.5863 25.0317V24.9H44.8055L44.8931 25.2511L44.7178 25.3389L44.6301 25.1194L44.4109 25.2511L44.5424 25.6022L44.8931 25.9094L45.2439 25.5583L45.3754 25.0317L45.9015 24.8122L46.6468 25.5144L46.3837 25.6899L46.2084 26.4799L45.9892 26.787H46.3399L46.5591 26.8748L46.7783 26.6115L47.0413 26.4799L47.129 25.9094L47.4798 25.646L47.6551 25.3827C47.4798 24.7683 47.3044 24.1978 46.9975 23.6273L45.9892 22.9691L45.9453 22.3547L46.2961 22.2669C45.77 21.4331 45.2 20.687 44.5863 19.9849L41.8243 22.7496C42.2188 23.1007 42.4819 23.4518 42.7449 23.8906ZM43.271 37.5388L43.8848 36.6173L44.1917 37.8461L44.0163 38.3727L44.4109 38.7676C46.6906 36.354 48.0497 33.1942 48.1812 29.8151H45.2L45.7261 30.9122L46.3837 31.0439L47.0413 30.8245L47.129 31.2194L46.9098 31.3072L46.3837 31.0878L46.4714 31.4389L46.6468 31.746L45.6823 32.0094L45.3316 32.2288H44.7616L44.4547 32.0971L44.2794 32.141L44.4986 32.3604L44.2794 32.6237L44.1917 32.536L43.9725 32.7993L43.6217 32.9309C43.4025 33.4137 43.0957 33.8964 42.7888 34.3353L43.008 34.423L43.1395 34.1597L43.4902 34.2475L43.6217 34.7741L43.6656 35.3007L43.4464 35.8273L43.5779 36.0468L43.2272 36.7928L42.9641 37.1439L43.271 37.5388ZM47.2606 42.5856L44.4986 39.8209C44.2794 40.0403 44.0602 40.2158 43.841 40.4353L44.104 40.8741H44.5424L45.1123 41.4885L44.5424 42.2345L44.1917 43.0245L44.6739 43.3317V43.595L44.1479 44.0777L44.2794 44.4288L43.9286 45.2187C45.0685 44.4727 46.2084 43.595 47.2606 42.5856ZM53.0037 29.7712H49.058C48.9265 33.3259 47.5236 36.6612 45.0247 39.2504L46.2084 40.4353L46.3399 40.3036L46.4276 39.6453L46.5591 39.1187L47.2167 39.3381L47.0852 39.6014L47.3044 39.6892L47.6113 41.2252L47.3044 41.5763L47.8305 42.1029C51.0309 38.7237 52.8722 34.3791 53.0037 29.7712ZM51.1186 45.3504C55.1958 41.1813 57.5632 35.6079 57.6947 29.7712H53.749C53.6613 34.5547 51.7323 39.1187 48.3566 42.5856L51.1186 45.3504ZM27.5321 36.0468C25.91 34.3353 24.9455 32.141 24.814 29.8151H24.1564L24.3756 30.1223L24.1564 31.2633L24.2002 31.9216V32.2288L24.3317 32.4043L24.244 32.8871H24.1125L23.8495 32.3604L23.6741 31.9216L23.7618 31.8338L23.9372 32.0532L24.1564 31.9216L23.8056 31.1755L23.8933 31L24.1125 30.0784L23.981 29.8151H23.0603L22.8411 30.1223H22.315L22.0958 30.6489L22.315 31.0878L22.0958 31.6583L22.5781 31.8777L23.148 32.9748L23.0603 33.5453L23.5426 34.4669L23.6303 35.959L24.0248 36.9245L23.8933 37.8899C24.1125 38.1971 24.4194 38.5043 24.7263 38.8115L27.5321 36.0468ZM23.8495 28.9813H24.814C24.8578 28.5424 24.9017 28.0597 24.9455 27.6209L24.814 27.4892L23.981 27.3576L23.4988 27.6209L23.4111 28.4108L23.8495 28.9813ZM26.6991 30.8683H26.173L25.6031 30.254C25.8223 32.2288 26.6991 34.0281 28.0582 35.4763L30.8202 32.7115C30.4695 32.3165 30.1626 31.8338 29.8995 31.3072L29.7242 32.141L29.4173 32.3604L29.505 32.536L29.1104 32.7554L28.8473 32.2288L29.4611 32.0532L29.1104 31.5705L28.7597 31.2194L28.4528 31.746L28.4966 32.141L27.9267 31.7899L28.1459 31.6144L27.6198 31.2633L27.4006 31.3511L26.6991 30.8683ZM20.8683 29.0252H22.6219L22.7096 28.3669L23.1919 27.8403L23.0165 27.5331L23.8495 25.9532L24.4194 26.041L25.0332 25.5583H25.2524L25.647 25.295L25.7346 25.1633L25.2524 25.2511L24.7263 25.3389L25.1209 24.9878H25.2524L25.647 24.9H25.8662C26.2169 24.1101 26.743 23.4079 27.3129 22.7496L24.5509 19.9849C22.2274 22.3547 20.9121 25.6022 20.8683 29.0252ZM20.8683 29.8151C20.9121 30.4295 20.956 31.0878 21.0875 31.6583L21.1313 31.7022H21.789L22.1397 31.1317L21.789 30.7806L22.052 29.8151H20.8683ZM20.5614 41.1813C20.8245 41.5324 21.0875 41.8396 21.3944 42.1468L22.052 41.4885L21.8766 41.3568L20.9998 40.8302L20.5614 41.1813ZM16.1773 29.7712C16.265 31.5266 16.528 33.2381 17.0541 34.9058H17.6241L18.6324 34.5547L18.5886 32.7993L19.5969 31.5266L19.6846 31.0439L20.1668 30.9561C20.0792 30.5611 20.0792 30.1662 20.0792 29.8151L16.1773 29.7712ZM11.4863 29.0252H15.432C15.5197 24.1978 17.4049 19.5022 20.7368 16.0352L17.9748 13.2705C13.8537 17.4835 11.5302 23.1007 11.4863 29.0252ZM11.4863 29.8151C11.6179 35.6957 13.9853 41.2691 18.1063 45.4381L20.8683 42.6734C19.8161 41.6201 18.9393 40.4353 18.1502 39.2065L18.0186 39.777L17.5802 39.6453L16.8349 38.4165L16.4842 38.3288L16.2212 37.9777V37.495L16.1335 37.4072L15.8704 37.6266L15.2567 37.4511L15.169 37.1L14.9498 36.9683V37.6266L14.8182 37.5388L14.2045 36.6611L13.8537 36.5734L13.9414 36.9245L13.8099 37.0561L13.9414 37.6705L14.599 38.8993L14.3798 38.8115L13.9853 38.1532L13.1523 36.1345L13.0646 35.0374L13.3277 34.5547L14.0729 34.2475L14.2922 34.4669L14.0291 34.6863L15.0374 34.9058L14.6867 34.423L15.7827 34.5108L16.0019 34.7302L16.2212 34.7741C15.6951 33.1504 15.3882 31.4389 15.3882 29.7273L11.4863 29.8151ZM46.3399 11.7784L46.1207 11.4273L45.5946 11.164L45.2 11.4712L45.7261 11.7345L46.2961 12.1295L46.3399 11.7784ZM12.9331 11.6906C14.2483 10.1108 14.6867 7.91654 16.7911 6.38057C12.4947 7.30216 8.89971 11.0763 7.93521 15.7719C9.29428 14.1482 11.6179 13.2266 12.9331 11.6906ZM57.344 48.3784C59.7991 44.9554 58.2646 41.3568 58.7469 38.8554C54.8012 44.8237 56.9494 47.3691 54.3189 51.1871C57.5632 48.905 64.7093 51.0554 67.4274 40.4353C65.2792 44.7799 59.8867 45.5259 57.344 48.3784ZM81.8949 29.1129L84.6131 14.9381H84.6569L87.2435 29.1129H91.0138L94.565 11.8223H91.6714L89.1287 25.1194H89.0848L86.4982 11.8223H82.6402L80.0536 25.1194H80.0098L77.5546 11.8223H74.5735L78.0807 29.1129H81.8949ZM88.5149 42.5856C88.5149 48.7734 85.2268 51.4504 81.6319 51.4504C78.0369 51.4504 74.7488 48.7734 74.7488 42.5856C74.7488 36.3978 78.0369 33.7209 81.6319 33.7209C85.2268 33.677 88.5149 36.354 88.5149 42.5856ZM85.2707 42.5856C85.2707 37.8022 83.6486 36.1345 81.6319 36.1345C79.6152 36.1345 77.9931 37.846 77.9931 42.5856C77.9931 47.3252 79.6152 49.0367 81.6319 49.0367C83.6486 49.0367 85.2707 47.3252 85.2707 42.5856ZM60.5444 31.8338C58.3962 37.5388 61.202 39.6014 59.6237 45.5259C61.5089 42.9367 69.0057 41.5763 69.0495 32.2288C67.9096 35.6518 63.964 37.495 61.4212 42.454C62.9118 36.6173 60.7197 35.0374 60.5444 31.8338ZM20.956 55.4439C18.7639 52.4158 20.2545 50.6604 14.0729 45.1309C15.3882 47.1496 14.0291 49.695 18.194 53.6446C14.1168 51.2309 8.50514 52.2403 5.787 49.0367C10.478 57.9892 18.6324 54.3029 20.956 55.4439ZM92.5921 40.7863C92.5483 39.9964 92.5044 39.2065 92.4606 38.4604H89.6986C89.7863 39.1626 89.7863 39.8648 89.7863 40.5669V51.2309H92.8113V44.2532C92.8113 41.8835 94.2142 41.0935 95.4418 41.0935C95.7487 41.0935 96.0555 41.1813 96.3186 41.2252V38.3288C96.1432 38.2849 95.9679 38.241 95.7925 38.241C93.9512 38.2849 92.9867 39.8209 92.5921 40.7863ZM47.4798 55.8827C45.2877 55.3122 43.008 54.9173 40.7283 54.8734C38.6239 54.8295 36.5195 55.1806 34.5905 55.9266C32.6177 55.1806 30.5133 54.8295 28.4528 54.8734C26.1731 54.9611 23.8933 55.3122 21.7013 55.8827C17.9748 56.8482 14.7744 57.6381 11.9686 56.2338C14.6429 58.6036 17.7994 59.4813 22.315 58.9986C26.0854 58.6036 29.1104 56.7166 32.6615 56.7166H32.793C30.5571 57.8137 28.5843 59.3935 26.9184 61.2806L28.6281 61.5C28.6281 61.5 30.4256 57.8576 34.5905 56.936C38.7554 57.9014 40.5529 61.5 40.5529 61.5L42.2627 61.2806C40.6406 59.3935 38.6239 57.8137 36.388 56.7166H36.5195C40.0706 56.6727 43.0957 58.5597 46.866 58.9986C51.3816 59.4813 54.4943 58.6475 57.2125 56.2338C54.4066 57.6381 51.2062 56.8482 47.4798 55.8827ZM50.8994 53.6446C55.0642 49.695 53.7052 47.1496 55.0204 45.1309C48.8388 50.6604 50.3733 52.3719 48.1374 55.4439C50.4609 54.3468 58.6592 57.9892 63.3063 49.0367C60.5882 52.2842 54.9327 51.2309 50.8994 53.6446Z" fill="#375475"/>
</svg>
